<svg version="1.1" xmlns="http://www.w3.org/2000/svg" xmlns:xlink="http://www.w3.org/1999/xlink" width="644" height="336"><defs></defs><g><g transform="translate(-50,-30) scale(1,1)"><path fill="#ffffff" stroke="none" d="M 112.5709090909091 47.3 C 112.5709090909091 43.82060576 115.4493108130909 41 119 41 C 122.5506891869091 41 125.42909090909092 43.82060576 125.42909090909092 47.3 C 125.42909090909092 50.779394239999995 122.5506891869091 53.6 119 53.6 C 115.4493108130909 53.6 112.5709090909091 50.779394239999995 112.5709090909091 47.3 Z"></path></g><g transform="translate(-50,-30) scale(1,1)"><path fill="none" stroke="#000000" d="M 112.5709090909091 47.3 C 112.5709090909091 43.82060576 115.4493108130909 41 119 41 C 122.5506891869091 41 125.42909090909092 43.82060576 125.42909090909092 47.3 C 125.42909090909092 50.779394239999995 122.5506891869091 53.6 119 53.6 C 115.4493108130909 53.6 112.5709090909091 50.779394239999995 112.5709090909091 47.3 Z" stroke-miterlimit="10"></path></g><g transform="translate(-50,-30) scale(1,1)"><path fill="none" stroke="#000000" d="M 119 53.6 L 119 66.4" stroke-miterlimit="10"></path></g><g transform="translate(-50,-30) scale(1,1)"><path fill="none" stroke="#000000" d="M 112.19272727272728 58.4 L 125.80727272727273 58.4" stroke-miterlimit="10"></path></g><g transform="translate(-50,-30) scale(1,1)"><path fill="none" stroke="#000000" d="M 119 66.4 L 109.54545454545455 79" stroke-miterlimit="10"></path></g><g transform="translate(-50,-30) scale(1,1)"><path fill="none" stroke="#000000" d="M 119 66.4 L 128.45454545454547 79" stroke-miterlimit="10"></path></g><g transform="translate(-50,-30) scale(1,1)"><g><path fill="none" stroke="none"></path><text fill="#000000" stroke="none" font-family="Arial" font-size="13px" font-style="normal" font-weight="bold" text-decoration="none" x="69" y="99.5">Lifeline1: Usuário</text></g></g><g transform="translate(-50,-30) scale(1,1)"><path fill="none" stroke="#000000" d="M 120.5 105 L 120.5 324" stroke-miterlimit="10" stroke-dasharray="3"></path></g><g transform="translate(-50,-30) scale(1,1)"><rect fill="#C0C0C0" stroke="none" x="255" y="47" width="86" height="39" opacity="0.2"></rect></g><g transform="translate(-50,-30) scale(1,1)"><rect fill="#ffffff" stroke="none" x="248" y="40" width="86" height="39"></rect></g><g transform="translate(-50,-30) scale(1,1)"><path fill="none" stroke="#000000" d="M 248 40 L 334 40 L 334 79 L 248 79 L 248 40 Z Z" stroke-miterlimit="10"></path></g><g transform="translate(-50,-30) scale(1,1)"><g><path fill="none" stroke="none"></path><text fill="#000000" stroke="none" font-family="Arial" font-size="13px" font-style="normal" font-weight="normal" text-decoration="none" x="257.5" y="57.5">«boundary»</text></g></g><g transform="translate(-50,-30) scale(1,1)"><g><path fill="none" stroke="none"></path><text fill="#000000" stroke="none" font-family="Arial" font-size="13px" font-style="normal" font-weight="bold" text-decoration="none" x="284.5" y="72.5">UI</text></g></g><g transform="translate(-50,-30) scale(1,1)"><path fill="none" stroke="#000000" d="M 292.5 80 L 292.5 344" stroke-miterlimit="10" stroke-dasharray="3"></path></g><g transform="translate(-50,-30) scale(1,1)"><rect fill="#C0C0C0" stroke="none" x="411" y="47" width="124" height="39" opacity="0.2"></rect></g><g transform="translate(-50,-30) scale(1,1)"><rect fill="#ffffff" stroke="none" x="404" y="40" width="124" height="39"></rect></g><g transform="translate(-50,-30) scale(1,1)"><path fill="none" stroke="#000000" d="M 404 40 L 528 40 L 528 79 L 404 79 L 404 40 Z Z" stroke-miterlimit="10"></path></g><g transform="translate(-50,-30) scale(1,1)"><g><path fill="none" stroke="none"></path><text fill="#000000" stroke="none" font-family="Arial" font-size="13px" font-style="normal" font-weight="normal" text-decoration="none" x="432.5" y="57.5">«controller»</text></g></g><g transform="translate(-50,-30) scale(1,1)"><g><path fill="none" stroke="none"></path><text fill="#000000" stroke="none" font-family="Arial" font-size="13px" font-style="normal" font-weight="bold" text-decoration="none" x="419" y="72.5">TopicoController</text></g></g><g transform="translate(-50,-30) scale(1,1)"><path fill="none" stroke="#000000" d="M 467.5 80 L 467.5 344" stroke-miterlimit="10" stroke-dasharray="3"></path></g><g transform="translate(-50,-30) scale(1,1)"><rect fill="#C0C0C0" stroke="none" x="619" y="147" width="72" height="39" opacity="0.2"></rect></g><g transform="translate(-50,-30) scale(1,1)"><rect fill="#ffffff" stroke="none" x="612" y="140" width="72" height="39"></rect></g><g transform="translate(-50,-30) scale(1,1)"><path fill="none" stroke="#000000" d="M 612 140 L 684 140 L 684 179 L 612 179 L 612 140 Z Z" stroke-miterlimit="10"></path></g><g transform="translate(-50,-30) scale(1,1)"><g><path fill="none" stroke="none"></path><text fill="#000000" stroke="none" font-family="Arial" font-size="13px" font-style="normal" font-weight="normal" text-decoration="none" x="625" y="157.5">«entity»</text></g></g><g transform="translate(-50,-30) scale(1,1)"><g><path fill="none" stroke="none"></path><text fill="#000000" stroke="none" font-family="Arial" font-size="13px" font-style="normal" font-weight="bold" text-decoration="none" x="628.5" y="172.5">Topico</text></g></g><g transform="translate(-50,-30) scale(1,1)"><path fill="none" stroke="#000000" d="M 649.5 180 L 649.5 356" stroke-miterlimit="10" stroke-dasharray="3"></path></g><g transform="translate(-50,-30) scale(1,1)"><path fill="none" stroke="#000000" d="M 120 122 L 285 122" stroke-miterlimit="10"></path></g><g transform="translate(-50,-30) scale(1,1)"><path fill="#000000" stroke="none" d="M 274.83732514237585 126.20951775601598 L 285 122 L 274.83732514237585 117.79048224398402"></path></g><g transform="translate(-50,-30) scale(1,1)"><path fill="none" stroke="#000000" d="M 274.83732514237585 126.20951775601598 L 285 122 L 274.83732514237585 117.79048224398402 L 274.83732514237585 126.20951775601598" stroke-miterlimit="10"></path></g><g transform="translate(-50,-30) scale(1,1)"><g><path fill="none" stroke="none"></path><text fill="#000000" stroke="none" font-family="Arial" font-size="13px" font-style="normal" font-weight="normal" text-decoration="none" x="174" y="119">1 : Postar</text></g></g><g transform="translate(-50,-30) scale(1,1)"><rect fill="#ffffff" stroke="none" x="285" y="122" width="13" height="28"></rect></g><g transform="translate(-50,-30) scale(1,1)"><path fill="none" stroke="#000000" d="M 285 122 L 298 122 L 298 150 L 285 150 L 285 122 Z Z" stroke-miterlimit="10"></path></g><g transform="translate(-50,-30) scale(1,1)"><path fill="none" stroke="#000000" d="M 298 145 L 460 145" stroke-miterlimit="10"></path></g><g transform="translate(-50,-30) scale(1,1)"><path fill="#000000" stroke="none" d="M 449.83732514237585 149.209517756016 L 460 145 L 449.83732514237585 140.790482243984"></path></g><g transform="translate(-50,-30) scale(1,1)"><path fill="none" stroke="#000000" d="M 449.83732514237585 149.209517756016 L 460 145 L 449.83732514237585 140.790482243984 L 449.83732514237585 149.209517756016" stroke-miterlimit="10"></path></g><g transform="translate(-50,-30) scale(1,1)"><g><path fill="none" stroke="none"></path><text fill="#000000" stroke="none" font-family="Arial" font-size="13px" font-style="normal" font-weight="normal" text-decoration="none" x="351" y="142">2 : Postar</text></g></g><g transform="translate(-50,-30) scale(1,1)"><rect fill="#ffffff" stroke="none" x="460" y="145" width="13" height="28"></rect></g><g transform="translate(-50,-30) scale(1,1)"><path fill="none" stroke="#000000" d="M 460 145 L 473 145 L 473 173 L 460 173 L 460 145 Z Z" stroke-miterlimit="10"></path></g><g transform="translate(-50,-30) scale(1,1)"><path fill="none" stroke="#000000" d="M 473 160 L 612 160" stroke-miterlimit="10" stroke-dasharray="3"></path></g><g transform="translate(-50,-30) scale(1,1)"><path fill="none" stroke="#000000" d="M 601.8373251423759 164.209517756016 L 612 160 L 601.8373251423758 155.790482243984" stroke-miterlimit="10"></path></g><g transform="translate(-50,-30) scale(1,1)"><g><path fill="none" stroke="none"></path><text fill="#000000" stroke="none" font-family="Arial" font-size="13px" font-style="normal" font-weight="normal" text-decoration="none" x="486" y="157">3 : criarNovoTopico</text></g></g><g transform="translate(-50,-30) scale(1,1)"><g><path fill="none" stroke="none"></path><text fill="#000000" stroke="none" font-family="Arial" font-size="13px" font-style="normal" font-weight="normal" text-decoration="none" x="517" y="142">«create»</text></g></g></g></svg>