<svg version="1.1" xmlns="http://www.w3.org/2000/svg" xmlns:xlink="http://www.w3.org/1999/xlink" width="612" height="221"><defs></defs><g><g transform="translate(-102,-30) scale(1,1)"><path fill="#ffffff" stroke="none" d="M 164.5709090909091 47.3 C 164.5709090909091 43.82060576 167.4493108130909 41 171 41 C 174.5506891869091 41 177.42909090909092 43.82060576 177.42909090909092 47.3 C 177.42909090909092 50.779394239999995 174.5506891869091 53.6 171 53.6 C 167.4493108130909 53.6 164.5709090909091 50.779394239999995 164.5709090909091 47.3 Z"></path></g><g transform="translate(-102,-30) scale(1,1)"><path fill="none" stroke="#000000" d="M 164.5709090909091 47.3 C 164.5709090909091 43.82060576 167.4493108130909 41 171 41 C 174.5506891869091 41 177.42909090909092 43.82060576 177.42909090909092 47.3 C 177.42909090909092 50.779394239999995 174.5506891869091 53.6 171 53.6 C 167.4493108130909 53.6 164.5709090909091 50.779394239999995 164.5709090909091 47.3 Z" stroke-miterlimit="10"></path></g><g transform="translate(-102,-30) scale(1,1)"><path fill="none" stroke="#000000" d="M 171 53.6 L 171 66.4" stroke-miterlimit="10"></path></g><g transform="translate(-102,-30) scale(1,1)"><path fill="none" stroke="#000000" d="M 164.1927272727273 58.4 L 177.80727272727273 58.4" stroke-miterlimit="10"></path></g><g transform="translate(-102,-30) scale(1,1)"><path fill="none" stroke="#000000" d="M 171 66.4 L 161.54545454545456 79" stroke-miterlimit="10"></path></g><g transform="translate(-102,-30) scale(1,1)"><path fill="none" stroke="#000000" d="M 171 66.4 L 180.45454545454547 79" stroke-miterlimit="10"></path></g><g transform="translate(-102,-30) scale(1,1)"><g><path fill="none" stroke="none"></path><text fill="#000000" stroke="none" font-family="Arial" font-size="13px" font-style="normal" font-weight="bold" text-decoration="none" x="121" y="99.5">Lifeline1: Usuário</text></g></g><g transform="translate(-102,-30) scale(1,1)"><path fill="none" stroke="#000000" d="M 172.5 105 L 172.5 240" stroke-miterlimit="10" stroke-dasharray="3"></path></g><g transform="translate(-102,-30) scale(1,1)"><rect fill="#C0C0C0" stroke="none" x="287" y="47" width="86" height="39" opacity="0.2"></rect></g><g transform="translate(-102,-30) scale(1,1)"><rect fill="#ffffff" stroke="none" x="280" y="40" width="86" height="39"></rect></g><g transform="translate(-102,-30) scale(1,1)"><path fill="none" stroke="#000000" d="M 280 40 L 366 40 L 366 79 L 280 79 L 280 40 Z Z" stroke-miterlimit="10"></path></g><g transform="translate(-102,-30) scale(1,1)"><g><path fill="none" stroke="none"></path><text fill="#000000" stroke="none" font-family="Arial" font-size="13px" font-style="normal" font-weight="normal" text-decoration="none" x="289.5" y="57.5">«boundary»</text></g></g><g transform="translate(-102,-30) scale(1,1)"><g><path fill="none" stroke="none"></path><text fill="#000000" stroke="none" font-family="Arial" font-size="13px" font-style="normal" font-weight="bold" text-decoration="none" x="316.5" y="72.5">UI</text></g></g><g transform="translate(-102,-30) scale(1,1)"><path fill="none" stroke="#000000" d="M 324.5 80 L 324.5 239" stroke-miterlimit="10" stroke-dasharray="3"></path></g><g transform="translate(-102,-30) scale(1,1)"><rect fill="#C0C0C0" stroke="none" x="427" y="47" width="124" height="39" opacity="0.2"></rect></g><g transform="translate(-102,-30) scale(1,1)"><rect fill="#ffffff" stroke="none" x="420" y="40" width="124" height="39"></rect></g><g transform="translate(-102,-30) scale(1,1)"><path fill="none" stroke="#000000" d="M 420 40 L 544 40 L 544 79 L 420 79 L 420 40 Z Z" stroke-miterlimit="10"></path></g><g transform="translate(-102,-30) scale(1,1)"><g><path fill="none" stroke="none"></path><text fill="#000000" stroke="none" font-family="Arial" font-size="13px" font-style="normal" font-weight="normal" text-decoration="none" x="448.5" y="57.5">«controller»</text></g></g><g transform="translate(-102,-30) scale(1,1)"><g><path fill="none" stroke="none"></path><text fill="#000000" stroke="none" font-family="Arial" font-size="13px" font-style="normal" font-weight="bold" text-decoration="none" x="434" y="72.5">SearchController</text></g></g><g transform="translate(-102,-30) scale(1,1)"><path fill="none" stroke="#000000" d="M 483.5 80 L 483.5 241" stroke-miterlimit="10" stroke-dasharray="3"></path></g><g transform="translate(-102,-30) scale(1,1)"><rect fill="#C0C0C0" stroke="none" x="639" y="47" width="72" height="39" opacity="0.2"></rect></g><g transform="translate(-102,-30) scale(1,1)"><path fill="none" stroke="#000000" d="M 637 45 L 709 45 L 709 84 L 637 84 L 637 45 Z Z" stroke-miterlimit="10"></path></g><g transform="translate(-102,-30) scale(1,1)"><rect fill="#ffffff" stroke="none" x="632" y="40" width="72" height="39"></rect></g><g transform="translate(-102,-30) scale(1,1)"><path fill="none" stroke="#000000" d="M 632 40 L 704 40 L 704 79 L 632 79 L 632 40 Z Z" stroke-miterlimit="10"></path></g><g transform="translate(-102,-30) scale(1,1)"><g><path fill="none" stroke="none"></path><text fill="#000000" stroke="none" font-family="Arial" font-size="13px" font-style="normal" font-weight="normal" text-decoration="none" x="645" y="57.5">«entity»</text></g></g><g transform="translate(-102,-30) scale(1,1)"><g><path fill="none" stroke="none"></path><text fill="#000000" stroke="none" font-family="Arial" font-size="13px" font-style="normal" font-weight="bold" text-decoration="none" x="648.5" y="72.5">Topico</text></g></g><g transform="translate(-102,-30) scale(1,1)"><path fill="none" stroke="#000000" d="M 669.5 80 L 669.5 241" stroke-miterlimit="10" stroke-dasharray="3"></path></g><g transform="translate(-102,-30) scale(1,1)"><path fill="none" stroke="#000000" d="M 172 132 L 317 132" stroke-miterlimit="10"></path></g><g transform="translate(-102,-30) scale(1,1)"><path fill="#000000" stroke="none" d="M 306.83732514237585 136.209517756016 L 317 132 L 306.83732514237585 127.79048224398402"></path></g><g transform="translate(-102,-30) scale(1,1)"><path fill="none" stroke="#000000" d="M 306.83732514237585 136.209517756016 L 317 132 L 306.83732514237585 127.79048224398402 L 306.83732514237585 136.209517756016" stroke-miterlimit="10"></path></g><g transform="translate(-102,-30) scale(1,1)"><g><path fill="none" stroke="none"></path><text fill="#000000" stroke="none" font-family="Arial" font-size="13px" font-style="normal" font-weight="normal" text-decoration="none" x="214" y="129">1 : Buscar</text></g></g><g transform="translate(-102,-30) scale(1,1)"><rect fill="#ffffff" stroke="none" x="317" y="132" width="13" height="28"></rect></g><g transform="translate(-102,-30) scale(1,1)"><path fill="none" stroke="#000000" d="M 317 132 L 330 132 L 330 160 L 317 160 L 317 132 Z Z" stroke-miterlimit="10"></path></g><g transform="translate(-102,-30) scale(1,1)"><path fill="none" stroke="#000000" d="M 330 152 L 476 152" stroke-miterlimit="10"></path></g><g transform="translate(-102,-30) scale(1,1)"><path fill="#000000" stroke="none" d="M 465.83732514237585 156.209517756016 L 476 152 L 465.83732514237585 147.790482243984"></path></g><g transform="translate(-102,-30) scale(1,1)"><path fill="none" stroke="#000000" d="M 465.83732514237585 156.209517756016 L 476 152 L 465.83732514237585 147.790482243984 L 465.83732514237585 156.209517756016" stroke-miterlimit="10"></path></g><g transform="translate(-102,-30) scale(1,1)"><g><path fill="none" stroke="none"></path><text fill="#000000" stroke="none" font-family="Arial" font-size="13px" font-style="normal" font-weight="normal" text-decoration="none" x="349" y="149">2 : buscar(palavra)</text></g></g><g transform="translate(-102,-30) scale(1,1)"><rect fill="#ffffff" stroke="none" x="476" y="152" width="13" height="28"></rect></g><g transform="translate(-102,-30) scale(1,1)"><path fill="none" stroke="#000000" d="M 476 152 L 489 152 L 489 180 L 476 180 L 476 152 Z Z" stroke-miterlimit="10"></path></g><g transform="translate(-102,-30) scale(1,1)"><path fill="none" stroke="#000000" d="M 489 173 L 662 173" stroke-miterlimit="10"></path></g><g transform="translate(-102,-30) scale(1,1)"><path fill="#000000" stroke="none" d="M 651.8373251423759 177.209517756016 L 662 173 L 651.8373251423758 168.790482243984"></path></g><g transform="translate(-102,-30) scale(1,1)"><path fill="none" stroke="#000000" d="M 651.8373251423759 177.209517756016 L 662 173 L 651.8373251423758 168.790482243984 L 651.8373251423759 177.209517756016" stroke-miterlimit="10"></path></g><g transform="translate(-102,-30) scale(1,1)"><g><path fill="none" stroke="none"></path><text fill="#000000" stroke="none" font-family="Arial" font-size="13px" font-style="normal" font-weight="normal" text-decoration="none" x="512" y="170">3 : getTopico(palavra)</text></g></g><g transform="translate(-102,-30) scale(1,1)"><rect fill="#ffffff" stroke="none" x="662" y="173" width="13" height="54"></rect></g><g transform="translate(-102,-30) scale(1,1)"><path fill="none" stroke="#000000" d="M 662 173 L 675 173 L 675 227 L 662 227 L 662 173 Z Z" stroke-miterlimit="10"></path></g></g></svg>