<svg version="1.1" xmlns="http://www.w3.org/2000/svg" xmlns:xlink="http://www.w3.org/1999/xlink" width="607" height="360"><defs></defs><g><g transform="translate(-14,-30) scale(1,1)"><path fill="#ffffff" stroke="none" d="M 76.5709090909091 47.3 C 76.5709090909091 43.82060576 79.44931081309092 41 83 41 C 86.55068918690908 41 89.4290909090909 43.82060576 89.4290909090909 47.3 C 89.4290909090909 50.779394239999995 86.55068918690908 53.6 83 53.6 C 79.44931081309092 53.6 76.5709090909091 50.779394239999995 76.5709090909091 47.3 Z"></path></g><g transform="translate(-14,-30) scale(1,1)"><path fill="none" stroke="#000000" d="M 76.5709090909091 47.3 C 76.5709090909091 43.82060576 79.44931081309092 41 83 41 C 86.55068918690908 41 89.4290909090909 43.82060576 89.4290909090909 47.3 C 89.4290909090909 50.779394239999995 86.55068918690908 53.6 83 53.6 C 79.44931081309092 53.6 76.5709090909091 50.779394239999995 76.5709090909091 47.3 Z" stroke-miterlimit="10"></path></g><g transform="translate(-14,-30) scale(1,1)"><path fill="none" stroke="#000000" d="M 83 53.6 L 83 66.4" stroke-miterlimit="10"></path></g><g transform="translate(-14,-30) scale(1,1)"><path fill="none" stroke="#000000" d="M 76.19272727272727 58.4 L 89.80727272727273 58.4" stroke-miterlimit="10"></path></g><g transform="translate(-14,-30) scale(1,1)"><path fill="none" stroke="#000000" d="M 83 66.4 L 73.54545454545455 79" stroke-miterlimit="10"></path></g><g transform="translate(-14,-30) scale(1,1)"><path fill="none" stroke="#000000" d="M 83 66.4 L 92.45454545454545 79" stroke-miterlimit="10"></path></g><g transform="translate(-14,-30) scale(1,1)"><g><path fill="none" stroke="none"></path><text fill="#000000" stroke="none" font-family="Arial" font-size="13px" font-style="normal" font-weight="bold" text-decoration="none" x="33" y="99.5">Lifeline1: Usuário</text></g></g><g transform="translate(-14,-30) scale(1,1)"><path fill="none" stroke="#000000" d="M 84.5 105 L 84.5 138" stroke-miterlimit="10" stroke-dasharray="3"></path></g><g transform="translate(-14,-30) scale(1,1)"><rect fill="#C0C0C0" stroke="none" x="187" y="47" width="86" height="39" opacity="0.2"></rect></g><g transform="translate(-14,-30) scale(1,1)"><rect fill="#ffffff" stroke="none" x="180" y="40" width="86" height="39"></rect></g><g transform="translate(-14,-30) scale(1,1)"><path fill="none" stroke="#000000" d="M 180 40 L 266 40 L 266 79 L 180 79 L 180 40 Z Z" stroke-miterlimit="10"></path></g><g transform="translate(-14,-30) scale(1,1)"><g><path fill="none" stroke="none"></path><text fill="#000000" stroke="none" font-family="Arial" font-size="13px" font-style="normal" font-weight="normal" text-decoration="none" x="189.5" y="57.5">«boundary»</text></g></g><g transform="translate(-14,-30) scale(1,1)"><g><path fill="none" stroke="none"></path><text fill="#000000" stroke="none" font-family="Arial" font-size="13px" font-style="normal" font-weight="bold" text-decoration="none" x="216.5" y="72.5">UI</text></g></g><g transform="translate(-14,-30) scale(1,1)"><path fill="none" stroke="#000000" d="M 224.5 80 L 224.5 239" stroke-miterlimit="10" stroke-dasharray="3"></path></g><g transform="translate(-14,-30) scale(1,1)"><rect fill="#C0C0C0" stroke="none" x="343" y="47" width="122" height="39" opacity="0.2"></rect></g><g transform="translate(-14,-30) scale(1,1)"><rect fill="#ffffff" stroke="none" x="336" y="40" width="122" height="39"></rect></g><g transform="translate(-14,-30) scale(1,1)"><path fill="none" stroke="#000000" d="M 336 40 L 458 40 L 458 79 L 336 79 L 336 40 Z Z" stroke-miterlimit="10"></path></g><g transform="translate(-14,-30) scale(1,1)"><g><path fill="none" stroke="none"></path><text fill="#000000" stroke="none" font-family="Arial" font-size="13px" font-style="normal" font-weight="normal" text-decoration="none" x="363.5" y="57.5">«controller»</text></g></g><g transform="translate(-14,-30) scale(1,1)"><g><path fill="none" stroke="none"></path><text fill="#000000" stroke="none" font-family="Arial" font-size="13px" font-style="normal" font-weight="bold" text-decoration="none" x="351" y="72.5">ProfileController</text></g></g><g transform="translate(-14,-30) scale(1,1)"><path fill="none" stroke="#000000" d="M 398.5 80 L 398.5 239" stroke-miterlimit="10" stroke-dasharray="3"></path></g><g transform="translate(-14,-30) scale(1,1)"><rect fill="#C0C0C0" stroke="none" x="543" y="47" width="75" height="39" opacity="0.2"></rect></g><g transform="translate(-14,-30) scale(1,1)"><rect fill="#ffffff" stroke="none" x="536" y="40" width="75" height="39"></rect></g><g transform="translate(-14,-30) scale(1,1)"><path fill="none" stroke="#000000" d="M 536 40 L 611 40 L 611 79 L 536 79 L 536 40 Z Z" stroke-miterlimit="10"></path></g><g transform="translate(-14,-30) scale(1,1)"><g><path fill="none" stroke="none"></path><text fill="#000000" stroke="none" font-family="Arial" font-size="13px" font-style="normal" font-weight="normal" text-decoration="none" x="550.5" y="57.5">«entity»</text></g></g><g transform="translate(-14,-30) scale(1,1)"><g><path fill="none" stroke="none"></path><text fill="#000000" stroke="none" font-family="Arial" font-size="13px" font-style="normal" font-weight="bold" text-decoration="none" x="547.5" y="72.5">Postador</text></g></g><g transform="translate(-14,-30) scale(1,1)"><path fill="none" stroke="#000000" d="M 574.5 80 L 574.5 239" stroke-miterlimit="10" stroke-dasharray="3"></path></g><g transform="translate(-14,-30) scale(1,1)"><path fill="#ffffff" stroke="none" d="M 396 300 L 569 300 L 579 310 L 579 379 L 396 379 L 396 300"></path></g><g transform="translate(-14,-30) scale(1,1)"><path fill="none" stroke="#000000" d="M 396 300 L 569 300 L 579 310 L 579 379 L 396 379 L 396 300 L 396 300" stroke-miterlimit="10"></path></g><g transform="translate(-14,-30) scale(1,1)"><path fill="none" stroke="#000000" d="M 569 300 L 569 310 L 579 310 L 569 300" stroke-miterlimit="10"></path></g><g transform="translate(-14,-30) scale(1,1)"><g><path fill="none" stroke="none"></path><text fill="#000000" stroke="none" font-family="Arial" font-size="13px" font-style="normal" font-weight="normal" text-decoration="none" x="401" y="318">Na verdade, esta operação</text><text fill="#000000" stroke="none" font-family="Arial" font-size="13px" font-style="normal" font-weight="normal" text-decoration="none" x="401" y="331">representa vários sets</text><text fill="#000000" stroke="none" font-family="Arial" font-size="13px" font-style="normal" font-weight="normal" text-decoration="none" x="401" y="344">(setNome, setFoto) que</text><text fill="#000000" stroke="none" font-family="Arial" font-size="13px" font-style="normal" font-weight="normal" text-decoration="none" x="401" y="357">podem ocorrer na edição de</text><text fill="#000000" stroke="none" font-family="Arial" font-size="13px" font-style="normal" font-weight="normal" text-decoration="none" x="401" y="370">perfil.</text></g></g><g transform="translate(-14,-30) scale(1,1)"><path fill="none" stroke="#000000" d="M 485 172 L 487.26785714285717 299" stroke-miterlimit="10" stroke-dasharray="3"></path></g><g transform="translate(-14,-30) scale(1,1)"><path fill="none" stroke="#000000" d="M 84 127 L 217 127" stroke-miterlimit="10"></path></g><g transform="translate(-14,-30) scale(1,1)"><path fill="#000000" stroke="none" d="M 206.83732514237585 131.209517756016 L 217 127 L 206.83732514237585 122.79048224398402"></path></g><g transform="translate(-14,-30) scale(1,1)"><path fill="none" stroke="#000000" d="M 206.83732514237585 131.209517756016 L 217 127 L 206.83732514237585 122.79048224398402 L 206.83732514237585 131.209517756016" stroke-miterlimit="10"></path></g><g transform="translate(-14,-30) scale(1,1)"><g><path fill="none" stroke="none"></path><text fill="#000000" stroke="none" font-family="Arial" font-size="13px" font-style="normal" font-weight="normal" text-decoration="none" x="110" y="124">1 : editarPerfil</text></g></g><g transform="translate(-14,-30) scale(1,1)"><rect fill="#ffffff" stroke="none" x="217" y="127" width="13" height="28"></rect></g><g transform="translate(-14,-30) scale(1,1)"><path fill="none" stroke="#000000" d="M 217 127 L 230 127 L 230 155 L 217 155 L 217 127 Z Z" stroke-miterlimit="10"></path></g><g transform="translate(-14,-30) scale(1,1)"><path fill="none" stroke="#000000" d="M 230 148 L 391 148" stroke-miterlimit="10"></path></g><g transform="translate(-14,-30) scale(1,1)"><path fill="#000000" stroke="none" d="M 380.83732514237585 152.209517756016 L 391 148 L 380.83732514237585 143.790482243984"></path></g><g transform="translate(-14,-30) scale(1,1)"><path fill="none" stroke="#000000" d="M 380.83732514237585 152.209517756016 L 391 148 L 380.83732514237585 143.790482243984 L 380.83732514237585 152.209517756016" stroke-miterlimit="10"></path></g><g transform="translate(-14,-30) scale(1,1)"><g><path fill="none" stroke="none"></path><text fill="#000000" stroke="none" font-family="Arial" font-size="13px" font-style="normal" font-weight="normal" text-decoration="none" x="255" y="145">2 : editarPerfil(info)</text></g></g><g transform="translate(-14,-30) scale(1,1)"><rect fill="#ffffff" stroke="none" x="391" y="148" width="13" height="28"></rect></g><g transform="translate(-14,-30) scale(1,1)"><path fill="none" stroke="#000000" d="M 391 148 L 404 148 L 404 176 L 391 176 L 391 148 Z Z" stroke-miterlimit="10"></path></g><g transform="translate(-14,-30) scale(1,1)"><path fill="none" stroke="#000000" d="M 404 172 L 567 172" stroke-miterlimit="10"></path></g><g transform="translate(-14,-30) scale(1,1)"><path fill="#000000" stroke="none" d="M 556.8373251423759 176.209517756016 L 567 172 L 556.8373251423758 167.790482243984"></path></g><g transform="translate(-14,-30) scale(1,1)"><path fill="none" stroke="#000000" d="M 556.8373251423759 176.209517756016 L 567 172 L 556.8373251423758 167.790482243984 L 556.8373251423759 176.209517756016" stroke-miterlimit="10"></path></g><g transform="translate(-14,-30) scale(1,1)"><g><path fill="none" stroke="none"></path><text fill="#000000" stroke="none" font-family="Arial" font-size="13px" font-style="normal" font-weight="normal" text-decoration="none" x="445" y="169">3 : alteraPerfil</text></g></g><g transform="translate(-14,-30) scale(1,1)"><rect fill="#ffffff" stroke="none" x="567" y="172" width="13" height="28"></rect></g><g transform="translate(-14,-30) scale(1,1)"><path fill="none" stroke="#000000" d="M 567 172 L 580 172 L 580 200 L 567 200 L 567 172 Z Z" stroke-miterlimit="10"></path></g></g></svg>