<svg version="1.1" xmlns="http://www.w3.org/2000/svg" xmlns:xlink="http://www.w3.org/1999/xlink" width="601" height="219"><defs></defs><g><g transform="translate(-80,-30) scale(1,1)"><path fill="#ffffff" stroke="none" d="M 142.5709090909091 47.3 C 142.5709090909091 43.82060576 145.4493108130909 41 149 41 C 152.5506891869091 41 155.42909090909092 43.82060576 155.42909090909092 47.3 C 155.42909090909092 50.779394239999995 152.5506891869091 53.6 149 53.6 C 145.4493108130909 53.6 142.5709090909091 50.779394239999995 142.5709090909091 47.3 Z"></path></g><g transform="translate(-80,-30) scale(1,1)"><path fill="none" stroke="#000000" d="M 142.5709090909091 47.3 C 142.5709090909091 43.82060576 145.4493108130909 41 149 41 C 152.5506891869091 41 155.42909090909092 43.82060576 155.42909090909092 47.3 C 155.42909090909092 50.779394239999995 152.5506891869091 53.6 149 53.6 C 145.4493108130909 53.6 142.5709090909091 50.779394239999995 142.5709090909091 47.3 Z" stroke-miterlimit="10"></path></g><g transform="translate(-80,-30) scale(1,1)"><path fill="none" stroke="#000000" d="M 149 53.6 L 149 66.4" stroke-miterlimit="10"></path></g><g transform="translate(-80,-30) scale(1,1)"><path fill="none" stroke="#000000" d="M 142.1927272727273 58.4 L 155.80727272727273 58.4" stroke-miterlimit="10"></path></g><g transform="translate(-80,-30) scale(1,1)"><path fill="none" stroke="#000000" d="M 149 66.4 L 139.54545454545456 79" stroke-miterlimit="10"></path></g><g transform="translate(-80,-30) scale(1,1)"><path fill="none" stroke="#000000" d="M 149 66.4 L 158.45454545454547 79" stroke-miterlimit="10"></path></g><g transform="translate(-80,-30) scale(1,1)"><g><path fill="none" stroke="none"></path><text fill="#000000" stroke="none" font-family="Arial" font-size="13px" font-style="normal" font-weight="bold" text-decoration="none" x="99" y="99.5">Lifeline1: Usuário</text></g></g><g transform="translate(-80,-30) scale(1,1)"><path fill="none" stroke="#000000" d="M 150.5 105 L 150.5 154" stroke-miterlimit="10" stroke-dasharray="3"></path></g><g transform="translate(-80,-30) scale(1,1)"><rect fill="#C0C0C0" stroke="none" x="255" y="47" width="86" height="39" opacity="0.2"></rect></g><g transform="translate(-80,-30) scale(1,1)"><rect fill="#ffffff" stroke="none" x="248" y="40" width="86" height="39"></rect></g><g transform="translate(-80,-30) scale(1,1)"><path fill="none" stroke="#000000" d="M 248 40 L 334 40 L 334 79 L 248 79 L 248 40 Z Z" stroke-miterlimit="10"></path></g><g transform="translate(-80,-30) scale(1,1)"><g><path fill="none" stroke="none"></path><text fill="#000000" stroke="none" font-family="Arial" font-size="13px" font-style="normal" font-weight="normal" text-decoration="none" x="257.5" y="57.5">«boundary»</text></g></g><g transform="translate(-80,-30) scale(1,1)"><g><path fill="none" stroke="none"></path><text fill="#000000" stroke="none" font-family="Arial" font-size="13px" font-style="normal" font-weight="bold" text-decoration="none" x="284.5" y="72.5">UI</text></g></g><g transform="translate(-80,-30) scale(1,1)"><path fill="none" stroke="#000000" d="M 292.5 80 L 292.5 239" stroke-miterlimit="10" stroke-dasharray="3"></path></g><g transform="translate(-80,-30) scale(1,1)"><rect fill="#C0C0C0" stroke="none" x="407" y="47" width="124" height="39" opacity="0.2"></rect></g><g transform="translate(-80,-30) scale(1,1)"><rect fill="#ffffff" stroke="none" x="400" y="40" width="124" height="39"></rect></g><g transform="translate(-80,-30) scale(1,1)"><path fill="none" stroke="#000000" d="M 400 40 L 524 40 L 524 79 L 400 79 L 400 40 Z Z" stroke-miterlimit="10"></path></g><g transform="translate(-80,-30) scale(1,1)"><g><path fill="none" stroke="none"></path><text fill="#000000" stroke="none" font-family="Arial" font-size="13px" font-style="normal" font-weight="normal" text-decoration="none" x="428.5" y="57.5">«controller»</text></g></g><g transform="translate(-80,-30) scale(1,1)"><g><path fill="none" stroke="none"></path><text fill="#000000" stroke="none" font-family="Arial" font-size="13px" font-style="normal" font-weight="bold" text-decoration="none" x="415" y="72.5">TopicoController</text></g></g><g transform="translate(-80,-30) scale(1,1)"><path fill="none" stroke="#000000" d="M 463.5 80 L 463.5 239" stroke-miterlimit="10" stroke-dasharray="3"></path></g><g transform="translate(-80,-30) scale(1,1)"><rect fill="#C0C0C0" stroke="none" x="603" y="47" width="75" height="39" opacity="0.2"></rect></g><g transform="translate(-80,-30) scale(1,1)"><path fill="none" stroke="#000000" d="M 601 45 L 676 45 L 676 84 L 601 84 L 601 45 Z Z" stroke-miterlimit="10"></path></g><g transform="translate(-80,-30) scale(1,1)"><rect fill="#ffffff" stroke="none" x="596" y="40" width="75" height="39"></rect></g><g transform="translate(-80,-30) scale(1,1)"><path fill="none" stroke="#000000" d="M 596 40 L 671 40 L 671 79 L 596 79 L 596 40 Z Z" stroke-miterlimit="10"></path></g><g transform="translate(-80,-30) scale(1,1)"><g><path fill="none" stroke="none"></path><text fill="#000000" stroke="none" font-family="Arial" font-size="13px" font-style="normal" font-weight="normal" text-decoration="none" x="610.5" y="57.5">«entity»</text></g></g><g transform="translate(-80,-30) scale(1,1)"><g><path fill="none" stroke="none"></path><text fill="#000000" stroke="none" font-family="Arial" font-size="13px" font-style="normal" font-weight="bold" text-decoration="none" x="614" y="72.5">Topico</text></g></g><g transform="translate(-80,-30) scale(1,1)"><path fill="none" stroke="#000000" d="M 634.5 80 L 634.5 239" stroke-miterlimit="10" stroke-dasharray="3"></path></g><g transform="translate(-80,-30) scale(1,1)"><path fill="none" stroke="#000000" d="M 150 128 L 285 128" stroke-miterlimit="10"></path></g><g transform="translate(-80,-30) scale(1,1)"><path fill="#000000" stroke="none" d="M 274.83732514237585 132.209517756016 L 285 128 L 274.83732514237585 123.79048224398402"></path></g><g transform="translate(-80,-30) scale(1,1)"><path fill="none" stroke="#000000" d="M 274.83732514237585 132.209517756016 L 285 128 L 274.83732514237585 123.79048224398402 L 274.83732514237585 132.209517756016" stroke-miterlimit="10"></path></g><g transform="translate(-80,-30) scale(1,1)"><g><path fill="none" stroke="none"></path><text fill="#000000" stroke="none" font-family="Arial" font-size="13px" font-style="normal" font-weight="normal" text-decoration="none" x="165" y="125">1 : visualizarPerfil</text></g></g><g transform="translate(-80,-30) scale(1,1)"><rect fill="#ffffff" stroke="none" x="285" y="128" width="13" height="28"></rect></g><g transform="translate(-80,-30) scale(1,1)"><path fill="none" stroke="#000000" d="M 285 128 L 298 128 L 298 156 L 285 156 L 285 128 Z Z" stroke-miterlimit="10"></path></g><g transform="translate(-80,-30) scale(1,1)"><path fill="none" stroke="#000000" d="M 298 148 L 456 148" stroke-miterlimit="10"></path></g><g transform="translate(-80,-30) scale(1,1)"><path fill="#000000" stroke="none" d="M 445.83732514237585 152.209517756016 L 456 148 L 445.83732514237585 143.790482243984"></path></g><g transform="translate(-80,-30) scale(1,1)"><path fill="none" stroke="#000000" d="M 445.83732514237585 152.209517756016 L 456 148 L 445.83732514237585 143.790482243984 L 445.83732514237585 152.209517756016" stroke-miterlimit="10"></path></g><g transform="translate(-80,-30) scale(1,1)"><g><path fill="none" stroke="none"></path><text fill="#000000" stroke="none" font-family="Arial" font-size="13px" font-style="normal" font-weight="normal" text-decoration="none" x="345" y="145">2 : getLista</text></g></g><g transform="translate(-80,-30) scale(1,1)"><rect fill="#ffffff" stroke="none" x="456" y="148" width="13" height="28"></rect></g><g transform="translate(-80,-30) scale(1,1)"><path fill="none" stroke="#000000" d="M 456 148 L 469 148 L 469 176 L 456 176 L 456 148 Z Z" stroke-miterlimit="10"></path></g><g transform="translate(-80,-30) scale(1,1)"><path fill="none" stroke="#000000" d="M 469 174 L 627 174" stroke-miterlimit="10"></path></g><g transform="translate(-80,-30) scale(1,1)"><path fill="#000000" stroke="none" d="M 616.8373251423759 178.209517756016 L 627 174 L 616.8373251423758 169.790482243984"></path></g><g transform="translate(-80,-30) scale(1,1)"><path fill="none" stroke="#000000" d="M 616.8373251423759 178.209517756016 L 627 174 L 616.8373251423758 169.790482243984 L 616.8373251423759 178.209517756016" stroke-miterlimit="10"></path></g><g transform="translate(-80,-30) scale(1,1)"><g><path fill="none" stroke="none"></path><text fill="#000000" stroke="none" font-family="Arial" font-size="13px" font-style="normal" font-weight="normal" text-decoration="none" x="510" y="171">3 : getTopico</text></g></g><g transform="translate(-80,-30) scale(1,1)"><rect fill="#ffffff" stroke="none" x="627" y="174" width="13" height="28"></rect></g><g transform="translate(-80,-30) scale(1,1)"><path fill="none" stroke="#000000" d="M 627 174 L 640 174 L 640 202 L 627 202 L 627 174 Z Z" stroke-miterlimit="10"></path></g></g></svg>