<svg version="1.1" xmlns="http://www.w3.org/2000/svg" xmlns:xlink="http://www.w3.org/1999/xlink" width="824" height="355"><defs></defs><g><g transform="translate(-18,-30) scale(1,1)"><path fill="#ffffff" stroke="none" d="M 80.5709090909091 47.3 C 80.5709090909091 43.82060576 83.44931081309092 41 87 41 C 90.55068918690908 41 93.4290909090909 43.82060576 93.4290909090909 47.3 C 93.4290909090909 50.779394239999995 90.55068918690908 53.6 87 53.6 C 83.44931081309092 53.6 80.5709090909091 50.779394239999995 80.5709090909091 47.3 Z"></path></g><g transform="translate(-18,-30) scale(1,1)"><path fill="none" stroke="#000000" d="M 80.5709090909091 47.3 C 80.5709090909091 43.82060576 83.44931081309092 41 87 41 C 90.55068918690908 41 93.4290909090909 43.82060576 93.4290909090909 47.3 C 93.4290909090909 50.779394239999995 90.55068918690908 53.6 87 53.6 C 83.44931081309092 53.6 80.5709090909091 50.779394239999995 80.5709090909091 47.3 Z" stroke-miterlimit="10"></path></g><g transform="translate(-18,-30) scale(1,1)"><path fill="none" stroke="#000000" d="M 87 53.6 L 87 66.4" stroke-miterlimit="10"></path></g><g transform="translate(-18,-30) scale(1,1)"><path fill="none" stroke="#000000" d="M 80.19272727272727 58.4 L 93.80727272727273 58.4" stroke-miterlimit="10"></path></g><g transform="translate(-18,-30) scale(1,1)"><path fill="none" stroke="#000000" d="M 87 66.4 L 77.54545454545455 79" stroke-miterlimit="10"></path></g><g transform="translate(-18,-30) scale(1,1)"><path fill="none" stroke="#000000" d="M 87 66.4 L 96.45454545454545 79" stroke-miterlimit="10"></path></g><g transform="translate(-18,-30) scale(1,1)"><g><path fill="none" stroke="none"></path><text fill="#000000" stroke="none" font-family="Arial" font-size="13px" font-style="normal" font-weight="bold" text-decoration="none" x="37" y="99.5">Lifeline1: Usuário</text></g></g><g transform="translate(-18,-30) scale(1,1)"><path fill="none" stroke="#000000" d="M 88.5 105 L 88.5 360" stroke-miterlimit="10" stroke-dasharray="3"></path></g><g transform="translate(-18,-30) scale(1,1)"><rect fill="#C0C0C0" stroke="none" x="219" y="47" width="86" height="39" opacity="0.2"></rect></g><g transform="translate(-18,-30) scale(1,1)"><rect fill="#ffffff" stroke="none" x="212" y="40" width="86" height="39"></rect></g><g transform="translate(-18,-30) scale(1,1)"><path fill="none" stroke="#000000" d="M 212 40 L 298 40 L 298 79 L 212 79 L 212 40 Z Z" stroke-miterlimit="10"></path></g><g transform="translate(-18,-30) scale(1,1)"><g><path fill="none" stroke="none"></path><text fill="#000000" stroke="none" font-family="Arial" font-size="13px" font-style="normal" font-weight="normal" text-decoration="none" x="221.5" y="57.5">«boundary»</text></g></g><g transform="translate(-18,-30) scale(1,1)"><g><path fill="none" stroke="none"></path><text fill="#000000" stroke="none" font-family="Arial" font-size="13px" font-style="normal" font-weight="bold" text-decoration="none" x="248.5" y="72.5">UI</text></g></g><g transform="translate(-18,-30) scale(1,1)"><path fill="none" stroke="#000000" d="M 256.5 80 L 256.5 360" stroke-miterlimit="10" stroke-dasharray="3"></path></g><g transform="translate(-18,-30) scale(1,1)"><rect fill="#C0C0C0" stroke="none" x="387" y="47" width="124" height="39" opacity="0.2"></rect></g><g transform="translate(-18,-30) scale(1,1)"><rect fill="#ffffff" stroke="none" x="380" y="40" width="124" height="39"></rect></g><g transform="translate(-18,-30) scale(1,1)"><path fill="none" stroke="#000000" d="M 380 40 L 504 40 L 504 79 L 380 79 L 380 40 Z Z" stroke-miterlimit="10"></path></g><g transform="translate(-18,-30) scale(1,1)"><g><path fill="none" stroke="none"></path><text fill="#000000" stroke="none" font-family="Arial" font-size="13px" font-style="normal" font-weight="normal" text-decoration="none" x="408.5" y="57.5">«controller»</text></g></g><g transform="translate(-18,-30) scale(1,1)"><g><path fill="none" stroke="none"></path><text fill="#000000" stroke="none" font-family="Arial" font-size="13px" font-style="normal" font-weight="bold" text-decoration="none" x="395" y="72.5">TopicoController</text></g></g><g transform="translate(-18,-30) scale(1,1)"><path fill="none" stroke="#000000" d="M 443.5 80 L 443.5 364" stroke-miterlimit="10" stroke-dasharray="3"></path></g><g transform="translate(-18,-30) scale(1,1)"><rect fill="#C0C0C0" stroke="none" x="567" y="47" width="72" height="39" opacity="0.2"></rect></g><g transform="translate(-18,-30) scale(1,1)"><rect fill="#ffffff" stroke="none" x="560" y="40" width="72" height="39"></rect></g><g transform="translate(-18,-30) scale(1,1)"><path fill="none" stroke="#000000" d="M 560 40 L 632 40 L 632 79 L 560 79 L 560 40 Z Z" stroke-miterlimit="10"></path></g><g transform="translate(-18,-30) scale(1,1)"><g><path fill="none" stroke="none"></path><text fill="#000000" stroke="none" font-family="Arial" font-size="13px" font-style="normal" font-weight="normal" text-decoration="none" x="573" y="57.5">«entity»</text></g></g><g transform="translate(-18,-30) scale(1,1)"><g><path fill="none" stroke="none"></path><text fill="#000000" stroke="none" font-family="Arial" font-size="13px" font-style="normal" font-weight="bold" text-decoration="none" x="576.5" y="72.5">Topico</text></g></g><g transform="translate(-18,-30) scale(1,1)"><path fill="none" stroke="#000000" d="M 597.5 80 L 597.5 368" stroke-miterlimit="10" stroke-dasharray="3"></path></g><g transform="translate(-18,-30) scale(1,1)"><rect fill="#C0C0C0" stroke="none" x="767" y="183" width="72" height="39" opacity="0.2"></rect></g><g transform="translate(-18,-30) scale(1,1)"><rect fill="#ffffff" stroke="none" x="760" y="176" width="72" height="39"></rect></g><g transform="translate(-18,-30) scale(1,1)"><path fill="none" stroke="#000000" d="M 760 176 L 832 176 L 832 215 L 760 215 L 760 176 Z Z" stroke-miterlimit="10"></path></g><g transform="translate(-18,-30) scale(1,1)"><g><path fill="none" stroke="none"></path><text fill="#000000" stroke="none" font-family="Arial" font-size="13px" font-style="normal" font-weight="normal" text-decoration="none" x="773" y="193.5">«entity»</text></g></g><g transform="translate(-18,-30) scale(1,1)"><g><path fill="none" stroke="none"></path><text fill="#000000" stroke="none" font-family="Arial" font-size="13px" font-style="normal" font-weight="bold" text-decoration="none" x="776.5" y="208.5">Topico</text></g></g><g transform="translate(-18,-30) scale(1,1)"><path fill="none" stroke="#000000" d="M 797.5 216 L 797.5 375" stroke-miterlimit="10" stroke-dasharray="3"></path></g><g transform="translate(-18,-30) scale(1,1)"><path fill="none" stroke="#000000" d="M 88 129 L 249 129" stroke-miterlimit="10"></path></g><g transform="translate(-18,-30) scale(1,1)"><path fill="#000000" stroke="none" d="M 238.83732514237585 133.209517756016 L 249 129 L 238.83732514237585 124.79048224398402"></path></g><g transform="translate(-18,-30) scale(1,1)"><path fill="none" stroke="#000000" d="M 238.83732514237585 133.209517756016 L 249 129 L 238.83732514237585 124.79048224398402 L 238.83732514237585 133.209517756016" stroke-miterlimit="10"></path></g><g transform="translate(-18,-30) scale(1,1)"><g><path fill="none" stroke="none"></path><text fill="#000000" stroke="none" font-family="Arial" font-size="13px" font-style="normal" font-weight="normal" text-decoration="none" x="132" y="126">1 : comentar</text></g></g><g transform="translate(-18,-30) scale(1,1)"><rect fill="#ffffff" stroke="none" x="249" y="129" width="13" height="28"></rect></g><g transform="translate(-18,-30) scale(1,1)"><path fill="none" stroke="#000000" d="M 249 129 L 262 129 L 262 157 L 249 157 L 249 129 Z Z" stroke-miterlimit="10"></path></g><g transform="translate(-18,-30) scale(1,1)"><path fill="none" stroke="#000000" d="M 262 153 L 436 153" stroke-miterlimit="10"></path></g><g transform="translate(-18,-30) scale(1,1)"><path fill="#000000" stroke="none" d="M 425.83732514237585 157.209517756016 L 436 153 L 425.83732514237585 148.790482243984"></path></g><g transform="translate(-18,-30) scale(1,1)"><path fill="none" stroke="#000000" d="M 425.83732514237585 157.209517756016 L 436 153 L 425.83732514237585 148.790482243984 L 425.83732514237585 157.209517756016" stroke-miterlimit="10"></path></g><g transform="translate(-18,-30) scale(1,1)"><g><path fill="none" stroke="none"></path><text fill="#000000" stroke="none" font-family="Arial" font-size="13px" font-style="normal" font-weight="normal" text-decoration="none" x="277" y="150">2 : comentar(comentario)</text></g></g><g transform="translate(-18,-30) scale(1,1)"><rect fill="#ffffff" stroke="none" x="436" y="153" width="13" height="28"></rect></g><g transform="translate(-18,-30) scale(1,1)"><path fill="none" stroke="#000000" d="M 436 153 L 449 153 L 449 181 L 436 181 L 436 153 Z Z" stroke-miterlimit="10"></path></g><g transform="translate(-18,-30) scale(1,1)"><path fill="none" stroke="#000000" d="M 449 175 L 590 175" stroke-miterlimit="10"></path></g><g transform="translate(-18,-30) scale(1,1)"><path fill="#000000" stroke="none" d="M 579.8373251423759 179.209517756016 L 590 175 L 579.8373251423758 170.790482243984"></path></g><g transform="translate(-18,-30) scale(1,1)"><path fill="none" stroke="#000000" d="M 579.8373251423759 179.209517756016 L 590 175 L 579.8373251423758 170.790482243984 L 579.8373251423759 179.209517756016" stroke-miterlimit="10"></path></g><g transform="translate(-18,-30) scale(1,1)"><g><path fill="none" stroke="none"></path><text fill="#000000" stroke="none" font-family="Arial" font-size="13px" font-style="normal" font-weight="normal" text-decoration="none" x="463" y="172">3 : novoComentario</text></g></g><g transform="translate(-18,-30) scale(1,1)"><rect fill="#ffffff" stroke="none" x="590" y="175" width="13" height="28"></rect></g><g transform="translate(-18,-30) scale(1,1)"><path fill="none" stroke="#000000" d="M 590 175 L 603 175 L 603 203 L 590 203 L 590 175 Z Z" stroke-miterlimit="10"></path></g><g transform="translate(-18,-30) scale(1,1)"><path fill="none" stroke="#000000" d="M 603 196 L 760 196" stroke-miterlimit="10" stroke-dasharray="3"></path></g><g transform="translate(-18,-30) scale(1,1)"><path fill="none" stroke="#000000" d="M 749.8373251423759 200.209517756016 L 760 196 L 749.8373251423758 191.790482243984" stroke-miterlimit="10"></path></g><g transform="translate(-18,-30) scale(1,1)"><g><path fill="none" stroke="none"></path><text fill="#000000" stroke="none" font-family="Arial" font-size="13px" font-style="normal" font-weight="normal" text-decoration="none" x="634" y="193">4 : novo(Topico)</text></g></g><g transform="translate(-18,-30) scale(1,1)"><g><path fill="none" stroke="none"></path><text fill="#000000" stroke="none" font-family="Arial" font-size="13px" font-style="normal" font-weight="normal" text-decoration="none" x="656" y="178">«create»</text></g></g></g></svg>