<svg version="1.1" xmlns="http://www.w3.org/2000/svg" xmlns:xlink="http://www.w3.org/1999/xlink" width="859" height="236"><defs></defs><g><g transform="translate(-34,-30) scale(1,1)"><path fill="#ffffff" stroke="none" d="M 96.5709090909091 47.3 C 96.5709090909091 43.82060576 99.44931081309092 41 103 41 C 106.55068918690908 41 109.4290909090909 43.82060576 109.4290909090909 47.3 C 109.4290909090909 50.779394239999995 106.55068918690908 53.6 103 53.6 C 99.44931081309092 53.6 96.5709090909091 50.779394239999995 96.5709090909091 47.3 Z"></path></g><g transform="translate(-34,-30) scale(1,1)"><path fill="none" stroke="#000000" d="M 96.5709090909091 47.3 C 96.5709090909091 43.82060576 99.44931081309092 41 103 41 C 106.55068918690908 41 109.4290909090909 43.82060576 109.4290909090909 47.3 C 109.4290909090909 50.779394239999995 106.55068918690908 53.6 103 53.6 C 99.44931081309092 53.6 96.5709090909091 50.779394239999995 96.5709090909091 47.3 Z" stroke-miterlimit="10"></path></g><g transform="translate(-34,-30) scale(1,1)"><path fill="none" stroke="#000000" d="M 103 53.6 L 103 66.4" stroke-miterlimit="10"></path></g><g transform="translate(-34,-30) scale(1,1)"><path fill="none" stroke="#000000" d="M 96.19272727272727 58.4 L 109.80727272727273 58.4" stroke-miterlimit="10"></path></g><g transform="translate(-34,-30) scale(1,1)"><path fill="none" stroke="#000000" d="M 103 66.4 L 93.54545454545455 79" stroke-miterlimit="10"></path></g><g transform="translate(-34,-30) scale(1,1)"><path fill="none" stroke="#000000" d="M 103 66.4 L 112.45454545454545 79" stroke-miterlimit="10"></path></g><g transform="translate(-34,-30) scale(1,1)"><g><path fill="none" stroke="none"></path><text fill="#000000" stroke="none" font-family="Arial" font-size="13px" font-style="normal" font-weight="bold" text-decoration="none" x="53" y="99.5">Lifeline1: Usuário</text></g></g><g transform="translate(-34,-30) scale(1,1)"><path fill="none" stroke="#000000" d="M 104.5 105 L 104.5 256" stroke-miterlimit="10" stroke-dasharray="3"></path></g><g transform="translate(-34,-30) scale(1,1)"><rect fill="#C0C0C0" stroke="none" x="231" y="47" width="86" height="39" opacity="0.2"></rect></g><g transform="translate(-34,-30) scale(1,1)"><rect fill="#ffffff" stroke="none" x="224" y="40" width="86" height="39"></rect></g><g transform="translate(-34,-30) scale(1,1)"><path fill="none" stroke="#000000" d="M 224 40 L 310 40 L 310 79 L 224 79 L 224 40 Z Z" stroke-miterlimit="10"></path></g><g transform="translate(-34,-30) scale(1,1)"><g><path fill="none" stroke="none"></path><text fill="#000000" stroke="none" font-family="Arial" font-size="13px" font-style="normal" font-weight="normal" text-decoration="none" x="233.5" y="57.5">«boundary»</text></g></g><g transform="translate(-34,-30) scale(1,1)"><g><path fill="none" stroke="none"></path><text fill="#000000" stroke="none" font-family="Arial" font-size="13px" font-style="normal" font-weight="bold" text-decoration="none" x="260.5" y="72.5">UI</text></g></g><g transform="translate(-34,-30) scale(1,1)"><path fill="none" stroke="#000000" d="M 268.5 80 L 268.5 248" stroke-miterlimit="10" stroke-dasharray="3"></path></g><g transform="translate(-34,-30) scale(1,1)"><rect fill="#C0C0C0" stroke="none" x="419" y="47" width="117" height="39" opacity="0.2"></rect></g><g transform="translate(-34,-30) scale(1,1)"><rect fill="#ffffff" stroke="none" x="412" y="40" width="117" height="39"></rect></g><g transform="translate(-34,-30) scale(1,1)"><path fill="none" stroke="#000000" d="M 412 40 L 529 40 L 529 79 L 412 79 L 412 40 Z Z" stroke-miterlimit="10"></path></g><g transform="translate(-34,-30) scale(1,1)"><g><path fill="none" stroke="none"></path><text fill="#000000" stroke="none" font-family="Arial" font-size="13px" font-style="normal" font-weight="normal" text-decoration="none" x="437" y="57.5">«controller»</text></g></g><g transform="translate(-34,-30) scale(1,1)"><g><path fill="none" stroke="none"></path><text fill="#000000" stroke="none" font-family="Arial" font-size="13px" font-style="normal" font-weight="bold" text-decoration="none" x="427.5" y="72.5">LoginController</text></g></g><g transform="translate(-34,-30) scale(1,1)"><path fill="none" stroke="#000000" d="M 471.5 80 L 471.5 244" stroke-miterlimit="10" stroke-dasharray="3"></path></g><g transform="translate(-34,-30) scale(1,1)"><rect fill="#C0C0C0" stroke="none" x="623" y="47" width="75" height="39" opacity="0.2"></rect></g><g transform="translate(-34,-30) scale(1,1)"><path fill="none" stroke="#000000" d="M 621 45 L 696 45 L 696 84 L 621 84 L 621 45 Z Z" stroke-miterlimit="10"></path></g><g transform="translate(-34,-30) scale(1,1)"><rect fill="#ffffff" stroke="none" x="616" y="40" width="75" height="39"></rect></g><g transform="translate(-34,-30) scale(1,1)"><path fill="none" stroke="#000000" d="M 616 40 L 691 40 L 691 79 L 616 79 L 616 40 Z Z" stroke-miterlimit="10"></path></g><g transform="translate(-34,-30) scale(1,1)"><g><path fill="none" stroke="none"></path><text fill="#000000" stroke="none" font-family="Arial" font-size="13px" font-style="normal" font-weight="normal" text-decoration="none" x="630.5" y="57.5">«entity»</text></g></g><g transform="translate(-34,-30) scale(1,1)"><g><path fill="none" stroke="none"></path><text fill="#000000" stroke="none" font-family="Arial" font-size="13px" font-style="normal" font-weight="bold" text-decoration="none" x="627.5" y="72.5">Postador</text></g></g><g transform="translate(-34,-30) scale(1,1)"><path fill="none" stroke="#000000" d="M 654.5 80 L 654.5 239" stroke-miterlimit="10" stroke-dasharray="3"></path></g><g transform="translate(-34,-30) scale(1,1)"><rect fill="#C0C0C0" stroke="none" x="815" y="47" width="75" height="39" opacity="0.2"></rect></g><g transform="translate(-34,-30) scale(1,1)"><rect fill="#ffffff" stroke="none" x="808" y="40" width="75" height="39"></rect></g><g transform="translate(-34,-30) scale(1,1)"><path fill="none" stroke="#000000" d="M 808 40 L 883 40 L 883 79 L 808 79 L 808 40 Z Z" stroke-miterlimit="10"></path></g><g transform="translate(-34,-30) scale(1,1)"><g><path fill="none" stroke="none"></path><text fill="#000000" stroke="none" font-family="Arial" font-size="13px" font-style="normal" font-weight="normal" text-decoration="none" x="822.5" y="57.5">«entity»</text></g></g><g transform="translate(-34,-30) scale(1,1)"><g><path fill="none" stroke="none"></path><text fill="#000000" stroke="none" font-family="Arial" font-size="13px" font-style="normal" font-weight="bold" text-decoration="none" x="819.5" y="72.5">Postador</text></g></g><g transform="translate(-34,-30) scale(1,1)"><path fill="none" stroke="#000000" d="M 846.5 80 L 846.5 239" stroke-miterlimit="10" stroke-dasharray="3"></path></g><g transform="translate(-34,-30) scale(1,1)"><path fill="none" stroke="#000000" d="M 104 129 L 261 129" stroke-miterlimit="10"></path></g><g transform="translate(-34,-30) scale(1,1)"><path fill="#000000" stroke="none" d="M 250.83732514237585 133.209517756016 L 261 129 L 250.83732514237585 124.79048224398402"></path></g><g transform="translate(-34,-30) scale(1,1)"><path fill="none" stroke="#000000" d="M 250.83732514237585 133.209517756016 L 261 129 L 250.83732514237585 124.79048224398402 L 250.83732514237585 133.209517756016" stroke-miterlimit="10"></path></g><g transform="translate(-34,-30) scale(1,1)"><g><path fill="none" stroke="none"></path><text fill="#000000" stroke="none" font-family="Arial" font-size="13px" font-style="normal" font-weight="normal" text-decoration="none" x="159" y="126">1 : login</text></g></g><g transform="translate(-34,-30) scale(1,1)"><rect fill="#ffffff" stroke="none" x="261" y="129" width="13" height="28"></rect></g><g transform="translate(-34,-30) scale(1,1)"><path fill="none" stroke="#000000" d="M 261 129 L 274 129 L 274 157 L 261 157 L 261 129 Z Z" stroke-miterlimit="10"></path></g><g transform="translate(-34,-30) scale(1,1)"><path fill="none" stroke="#000000" d="M 274 152 L 464 152" stroke-miterlimit="10"></path></g><g transform="translate(-34,-30) scale(1,1)"><path fill="#000000" stroke="none" d="M 453.83732514237585 156.209517756016 L 464 152 L 453.83732514237585 147.790482243984"></path></g><g transform="translate(-34,-30) scale(1,1)"><path fill="none" stroke="#000000" d="M 453.83732514237585 156.209517756016 L 464 152 L 453.83732514237585 147.790482243984 L 453.83732514237585 156.209517756016" stroke-miterlimit="10"></path></g><g transform="translate(-34,-30) scale(1,1)"><g><path fill="none" stroke="none"></path><text fill="#000000" stroke="none" font-family="Arial" font-size="13px" font-style="normal" font-weight="normal" text-decoration="none" x="308" y="149">2 : login(user, senha)</text></g></g><g transform="translate(-34,-30) scale(1,1)"><rect fill="#ffffff" stroke="none" x="464" y="152" width="13" height="28"></rect></g><g transform="translate(-34,-30) scale(1,1)"><path fill="none" stroke="#000000" d="M 464 152 L 477 152 L 477 180 L 464 180 L 464 152 Z Z" stroke-miterlimit="10"></path></g><g transform="translate(-34,-30) scale(1,1)"><path fill="none" stroke="#000000" d="M 477 169 L 647 169" stroke-miterlimit="10"></path></g><g transform="translate(-34,-30) scale(1,1)"><path fill="#000000" stroke="none" d="M 636.8373251423759 173.209517756016 L 647 169 L 636.8373251423758 164.790482243984"></path></g><g transform="translate(-34,-30) scale(1,1)"><path fill="none" stroke="#000000" d="M 636.8373251423759 173.209517756016 L 647 169 L 636.8373251423758 164.790482243984 L 636.8373251423759 173.209517756016" stroke-miterlimit="10"></path></g><g transform="translate(-34,-30) scale(1,1)"><g><path fill="none" stroke="none"></path><text fill="#000000" stroke="none" font-family="Arial" font-size="13px" font-style="normal" font-weight="normal" text-decoration="none" x="518" y="166">3 : getPostador</text></g></g><g transform="translate(-34,-30) scale(1,1)"><rect fill="#ffffff" stroke="none" x="647" y="169" width="13" height="28"></rect></g><g transform="translate(-34,-30) scale(1,1)"><path fill="none" stroke="#000000" d="M 647 169 L 660 169 L 660 197 L 647 197 L 647 169 Z Z" stroke-miterlimit="10"></path></g><g transform="translate(-34,-30) scale(1,1)"><path fill="none" stroke="#000000" d="M 660 193 L 839 193" stroke-miterlimit="10"></path></g><g transform="translate(-34,-30) scale(1,1)"><path fill="#000000" stroke="none" d="M 828.8373251423759 197.209517756016 L 839 193 L 828.8373251423758 188.790482243984"></path></g><g transform="translate(-34,-30) scale(1,1)"><path fill="none" stroke="#000000" d="M 828.8373251423759 197.209517756016 L 839 193 L 828.8373251423758 188.790482243984 L 828.8373251423759 197.209517756016" stroke-miterlimit="10"></path></g><g transform="translate(-34,-30) scale(1,1)"><g><path fill="none" stroke="none"></path><text fill="#000000" stroke="none" font-family="Arial" font-size="13px" font-style="normal" font-weight="normal" text-decoration="none" x="711" y="190">4 : autenticar</text></g></g><g transform="translate(-34,-30) scale(1,1)"><rect fill="#ffffff" stroke="none" x="839" y="193" width="13" height="28"></rect></g><g transform="translate(-34,-30) scale(1,1)"><path fill="none" stroke="#000000" d="M 839 193 L 852 193 L 852 221 L 839 221 L 839 193 Z Z" stroke-miterlimit="10"></path></g></g></svg>