<svg version="1.1" xmlns="http://www.w3.org/2000/svg" xmlns:xlink="http://www.w3.org/1999/xlink" width="863" height="719"><defs></defs><g><g transform="translate(-142,-18) scale(1,1)"><rect fill="#C0C0C0" stroke="none" x="279" y="35" width="723" height="699" opacity="0.2"></rect></g><g transform="translate(-142,-18) scale(1,1)"><rect fill="#ffffff" stroke="none" x="272" y="28" width="723" height="699"></rect></g><g transform="translate(-142,-18) scale(1,1)"><path fill="none" stroke="#000000" d="M 272 28 L 995 28 L 995 727 L 272 727 L 272 28 Z Z" stroke-miterlimit="10"></path></g><g transform="translate(-142,-18) scale(1,1)"><g><path fill="none" stroke="none"></path><text fill="#000000" stroke="none" font-family="Arial" font-size="13px" font-style="normal" font-weight="bold" text-decoration="none" x="611.5" y="47.5">Rundox</text></g></g><g transform="translate(-142,-18) scale(1,1)"><path fill="#ffffff" stroke="none" d="M 171.82072727272728 289.68 C 171.82072727272728 284.886167936 175.70656959767274 281 180.5 281 C 185.29343040232726 281 189.17927272727272 284.886167936 189.17927272727272 289.68 C 189.17927272727272 294.473832064 185.29343040232726 298.36 180.5 298.36 C 175.70656959767274 298.36 171.82072727272728 294.473832064 171.82072727272728 289.68 Z"></path></g><g transform="translate(-142,-18) scale(1,1)"><path fill="none" stroke="#000000" d="M 171.82072727272728 289.68 C 171.82072727272728 284.886167936 175.70656959767274 281 180.5 281 C 185.29343040232726 281 189.17927272727272 284.886167936 189.17927272727272 289.68 C 189.17927272727272 294.473832064 185.29343040232726 298.36 180.5 298.36 C 175.70656959767274 298.36 171.82072727272728 294.473832064 171.82072727272728 289.68 Z" stroke-miterlimit="10"></path></g><g transform="translate(-142,-18) scale(1,1)"><path fill="none" stroke="#000000" d="M 180.5 298.36 L 180.5 315.64" stroke-miterlimit="10"></path></g><g transform="translate(-142,-18) scale(1,1)"><path fill="none" stroke="#000000" d="M 171.31018181818183 304.84 L 189.68981818181817 304.84" stroke-miterlimit="10"></path></g><g transform="translate(-142,-18) scale(1,1)"><path fill="none" stroke="#000000" d="M 180.5 315.64 L 167.73636363636365 333" stroke-miterlimit="10"></path></g><g transform="translate(-142,-18) scale(1,1)"><path fill="none" stroke="#000000" d="M 180.5 315.64 L 193.26363636363635 333" stroke-miterlimit="10"></path></g><g transform="translate(-142,-18) scale(1,1)"><g><path fill="none" stroke="none"></path><text fill="#000000" stroke="none" font-family="Arial" font-size="13px" font-style="normal" font-weight="bold" text-decoration="none" x="158.5" y="353.5">Usuário</text></g></g><g transform="translate(-142,-18) scale(1,1)"><path fill="#C0C0C0" stroke="none" d="M 771 84 C 771 74.6111584 798.7583424 67 833 67 C 867.2416576 67 895 74.6111584 895 84 C 895 93.3888416 867.2416576 101 833 101 C 798.7583424 101 771 93.3888416 771 84 Z" opacity="0.2"></path></g><g transform="translate(-142,-18) scale(1,1)"><path fill="#ffffff" stroke="none" d="M 764 77 C 764 67.6111584 791.7583424 60 826 60 C 860.2416576 60 888 67.6111584 888 77 C 888 86.3888416 860.2416576 94 826 94 C 791.7583424 94 764 86.3888416 764 77 Z"></path></g><g transform="translate(-142,-18) scale(1,1)"><path fill="none" stroke="#000000" d="M 764 77 C 764 67.6111584 791.7583424 60 826 60 C 860.2416576 60 888 67.6111584 888 77 C 888 86.3888416 860.2416576 94 826 94 C 791.7583424 94 764 86.3888416 764 77 Z" stroke-miterlimit="10"></path></g><g transform="translate(-142,-18) scale(1,1)"><g><path fill="none" stroke="none"></path><text fill="#000000" stroke="none" font-family="Arial" font-size="13px" font-style="normal" font-weight="bold" text-decoration="none" x="789" y="84">Manter Perfil</text></g></g><g transform="translate(-142,-18) scale(1,1)"><path fill="#C0C0C0" stroke="none" d="M 711 208 C 711 198.6111584 745.2502128 191 787.5 191 C 829.7497872 191 864 198.6111584 864 208 C 864 217.3888416 829.7497872 225 787.5 225 C 745.2502128 225 711 217.3888416 711 208 Z" opacity="0.2"></path></g><g transform="translate(-142,-18) scale(1,1)"><path fill="#ffffff" stroke="none" d="M 704 201 C 704 191.6111584 738.2502128 184 780.5 184 C 822.7497872 184 857 191.6111584 857 201 C 857 210.3888416 822.7497872 218 780.5 218 C 738.2502128 218 704 210.3888416 704 201 Z"></path></g><g transform="translate(-142,-18) scale(1,1)"><path fill="none" stroke="#000000" d="M 704 201 C 704 191.6111584 738.2502128 184 780.5 184 C 822.7497872 184 857 191.6111584 857 201 C 857 210.3888416 822.7497872 218 780.5 218 C 738.2502128 218 704 210.3888416 704 201 Z" stroke-miterlimit="10"></path></g><g transform="translate(-142,-18) scale(1,1)"><g><path fill="none" stroke="none"></path><text fill="#000000" stroke="none" font-family="Arial" font-size="13px" font-style="normal" font-weight="bold" text-decoration="none" x="735" y="208">Visualizar Perfil</text></g></g><g transform="translate(-142,-18) scale(1,1)"><path fill="#C0C0C0" stroke="none" d="M 691 312 C 691 302.6111584 729.9512224 295 778 295 C 826.0487776 295 865 302.6111584 865 312 C 865 321.3888416 826.0487776 329 778 329 C 729.9512224 329 691 321.3888416 691 312 Z" opacity="0.2"></path></g><g transform="translate(-142,-18) scale(1,1)"><path fill="#ffffff" stroke="none" d="M 684 305 C 684 295.6111584 722.9512224 288 771 288 C 819.0487776 288 858 295.6111584 858 305 C 858 314.3888416 819.0487776 322 771 322 C 722.9512224 322 684 314.3888416 684 305 Z"></path></g><g transform="translate(-142,-18) scale(1,1)"><path fill="none" stroke="#000000" d="M 684 305 C 684 295.6111584 722.9512224 288 771 288 C 819.0487776 288 858 295.6111584 858 305 C 858 314.3888416 819.0487776 322 771 322 C 722.9512224 322 684 314.3888416 684 305 Z" stroke-miterlimit="10"></path></g><g transform="translate(-142,-18) scale(1,1)"><g><path fill="none" stroke="none"></path><text fill="#000000" stroke="none" font-family="Arial" font-size="13px" font-style="normal" font-weight="bold" text-decoration="none" x="718.5" y="312">Autenticar usuário</text></g></g><g transform="translate(-142,-18) scale(1,1)"><path fill="#C0C0C0" stroke="none" d="M 687 396 C 687 386.6111584 723.0410736 379 767.5 379 C 811.9589264 379 848 386.6111584 848 396 C 848 405.3888416 811.9589264 413 767.5 413 C 723.0410736 413 687 405.3888416 687 396 Z" opacity="0.2"></path></g><g transform="translate(-142,-18) scale(1,1)"><path fill="#ffffff" stroke="none" d="M 680 389 C 680 379.6111584 716.0410736 372 760.5 372 C 804.9589264 372 841 379.6111584 841 389 C 841 398.3888416 804.9589264 406 760.5 406 C 716.0410736 406 680 398.3888416 680 389 Z"></path></g><g transform="translate(-142,-18) scale(1,1)"><path fill="none" stroke="#000000" d="M 680 389 C 680 379.6111584 716.0410736 372 760.5 372 C 804.9589264 372 841 379.6111584 841 389 C 841 398.3888416 804.9589264 406 760.5 406 C 716.0410736 406 680 398.3888416 680 389 Z" stroke-miterlimit="10"></path></g><g transform="translate(-142,-18) scale(1,1)"><g><path fill="none" stroke="none"></path><text fill="#000000" stroke="none" font-family="Arial" font-size="13px" font-style="normal" font-weight="bold" text-decoration="none" x="711.5" y="396">Buscar conteúdo</text></g></g><g transform="translate(-142,-18) scale(1,1)"><path fill="#C0C0C0" stroke="none" d="M 643 592 C 643 582.6111584 681.9512224 575 730 575 C 778.0487776 575 817 582.6111584 817 592 C 817 601.3888416 778.0487776 609 730 609 C 681.9512224 609 643 601.3888416 643 592 Z" opacity="0.2"></path></g><g transform="translate(-142,-18) scale(1,1)"><path fill="#ffffff" stroke="none" d="M 636 585 C 636 575.6111584 674.9512224 568 723 568 C 771.0487776 568 810 575.6111584 810 585 C 810 594.3888416 771.0487776 602 723 602 C 674.9512224 602 636 594.3888416 636 585 Z"></path></g><g transform="translate(-142,-18) scale(1,1)"><path fill="none" stroke="#000000" d="M 636 585 C 636 575.6111584 674.9512224 568 723 568 C 771.0487776 568 810 575.6111584 810 585 C 810 594.3888416 771.0487776 602 723 602 C 674.9512224 602 636 594.3888416 636 585 Z" stroke-miterlimit="10"></path></g><g transform="translate(-142,-18) scale(1,1)"><g><path fill="none" stroke="none"></path><text fill="#000000" stroke="none" font-family="Arial" font-size="13px" font-style="normal" font-weight="bold" text-decoration="none" x="671" y="592">Visualizar Tutorial</text></g></g><g transform="translate(-142,-18) scale(1,1)"><path fill="#C0C0C0" stroke="none" d="M 551 684 C 551 674.6111584 589.2796496 667 636.5 667 C 683.7203504 667 722 674.6111584 722 684 C 722 693.3888416 683.7203504 701 636.5 701 C 589.2796496 701 551 693.3888416 551 684 Z" opacity="0.2"></path></g><g transform="translate(-142,-18) scale(1,1)"><path fill="#ffffff" stroke="none" d="M 544 677 C 544 667.6111584 582.2796496 660 629.5 660 C 676.7203504 660 715 667.6111584 715 677 C 715 686.3888416 676.7203504 694 629.5 694 C 582.2796496 694 544 686.3888416 544 677 Z"></path></g><g transform="translate(-142,-18) scale(1,1)"><path fill="none" stroke="#000000" d="M 544 677 C 544 667.6111584 582.2796496 660 629.5 660 C 676.7203504 660 715 667.6111584 715 677 C 715 686.3888416 676.7203504 694 629.5 694 C 582.2796496 694 544 686.3888416 544 677 Z" stroke-miterlimit="10"></path></g><g transform="translate(-142,-18) scale(1,1)"><g><path fill="none" stroke="none"></path><text fill="#000000" stroke="none" font-family="Arial" font-size="13px" font-style="normal" font-weight="bold" text-decoration="none" x="578" y="684">Comentar Tutorial</text></g></g><g transform="translate(-142,-18) scale(1,1)"><path fill="#C0C0C0" stroke="none" d="M 699 488 C 699 478.6111584 731.0116368 471 770.5 471 C 809.9883632 471 842 478.6111584 842 488 C 842 497.3888416 809.9883632 505 770.5 505 C 731.0116368 505 699 497.3888416 699 488 Z" opacity="0.2"></path></g><g transform="translate(-142,-18) scale(1,1)"><path fill="#ffffff" stroke="none" d="M 692 481 C 692 471.6111584 724.0116368 464 763.5 464 C 802.9883632 464 835 471.6111584 835 481 C 835 490.3888416 802.9883632 498 763.5 498 C 724.0116368 498 692 490.3888416 692 481 Z"></path></g><g transform="translate(-142,-18) scale(1,1)"><path fill="none" stroke="#000000" d="M 692 481 C 692 471.6111584 724.0116368 464 763.5 464 C 802.9883632 464 835 471.6111584 835 481 C 835 490.3888416 802.9883632 498 763.5 498 C 724.0116368 498 692 490.3888416 692 481 Z" stroke-miterlimit="10"></path></g><g transform="translate(-142,-18) scale(1,1)"><g><path fill="none" stroke="none"></path><text fill="#000000" stroke="none" font-family="Arial" font-size="13px" font-style="normal" font-weight="bold" text-decoration="none" x="721" y="488">Postar Tutorial</text></g></g><g transform="translate(-142,-18) scale(1,1)"><path fill="none" stroke="#000000" d="M 210 307.7616099071207 L 777.9504132231405 95" stroke-miterlimit="10"></path></g><g transform="translate(-142,-18) scale(1,1)"><path fill="none" stroke="#000000" d="M 210 313.1 L 703 216.14333333333335" stroke-miterlimit="10"></path></g><g transform="translate(-142,-18) scale(1,1)"><path fill="none" stroke="#000000" d="M 210 318.28934010152284 L 683 307.08460236886634" stroke-miterlimit="10"></path></g><g transform="translate(-142,-18) scale(1,1)"><path fill="none" stroke="#000000" d="M 210 322.62068965517244 L 679 379.2241379310345" stroke-miterlimit="10"></path></g><g transform="translate(-142,-18) scale(1,1)"><path fill="none" stroke="#000000" d="M 210 327.336192109777 L 698.2222222222222 463" stroke-miterlimit="10"></path></g><g transform="translate(-142,-18) scale(1,1)"><path fill="none" stroke="#000000" d="M 210 333.69613259668506 L 686.2556390977444 567" stroke-miterlimit="10"></path></g><g transform="translate(-142,-18) scale(1,1)"><path fill="none" stroke="#000000" d="M 210 342.9198218262806 L 606.4245810055866 659" stroke-miterlimit="10"></path></g></g></svg>